<svg id="svg" version="1.1" xmlns="http://www.w3.org/2000/svg" xmlns:xlink="http://www.w3.org/1999/xlink" width="400" height="400" viewBox="0, 0, 400,400"><g id="svgg"><path id="path0" d="M199.172 9.871 C 198.935 10.492,198.639 11.855,198.515 12.900 C 198.390 13.945,198.164 14.800,198.011 14.800 C 197.858 14.800,197.716 15.025,197.696 15.300 C 197.675 15.575,197.383 16.520,197.047 17.400 C 196.710 18.280,196.427 19.375,196.418 19.833 C 196.408 20.292,196.284 20.783,196.141 20.925 C 195.778 21.289,194.429 25.269,194.413 26.025 C 194.406 26.369,194.040 27.395,193.600 28.306 C 193.160 29.216,192.800 30.250,192.800 30.603 C 192.800 31.210,191.620 34.193,190.786 35.695 C 190.574 36.077,190.400 36.842,190.400 37.395 C 190.400 37.948,190.259 38.400,190.087 38.400 C 189.915 38.400,189.528 39.255,189.226 40.300 C 188.925 41.345,188.352 42.830,187.954 43.600 C 186.712 46.003,185.303 49.329,184.778 51.100 C 184.500 52.035,184.147 52.800,183.991 52.800 C 183.836 52.800,183.398 53.790,183.018 55.000 C 182.637 56.210,182.162 57.200,181.963 57.200 C 181.763 57.200,181.600 57.395,181.600 57.632 C 181.600 57.870,180.970 59.320,180.200 60.854 C 179.430 62.389,178.800 63.882,178.800 64.173 C 178.800 64.464,178.559 64.902,178.265 65.146 C 177.970 65.391,177.516 66.305,177.254 67.177 C 176.993 68.050,176.542 69.000,176.254 69.289 C 175.965 69.578,174.945 71.431,173.987 73.407 C 173.029 75.383,172.145 77.090,172.023 77.200 C 171.755 77.440,170.774 79.192,169.293 82.074 C 168.692 83.243,168.108 84.290,167.996 84.400 C 167.884 84.510,167.434 85.286,166.996 86.125 C 166.558 86.964,165.885 87.937,165.500 88.287 C 165.115 88.637,164.800 89.222,164.800 89.587 C 164.800 89.951,164.485 90.605,164.100 91.040 C 162.963 92.323,161.807 94.097,161.061 95.700 C 160.677 96.525,160.230 97.200,160.069 97.200 C 159.907 97.200,159.565 97.695,159.308 98.300 C 158.687 99.764,156.962 102.641,155.766 104.209 C 155.235 104.906,154.800 105.623,154.800 105.804 C 154.800 105.985,154.531 106.418,154.201 106.766 C 153.026 108.011,150.884 111.106,150.617 111.945 C 150.468 112.415,150.183 112.800,149.983 112.800 C 149.784 112.800,149.321 113.385,148.954 114.100 C 148.330 115.317,147.106 117.015,145.853 118.400 C 145.555 118.730,145.081 119.439,144.801 119.975 C 144.209 121.108,144.089 121.272,142.282 123.400 C 141.535 124.280,139.912 126.350,138.676 128.000 C 137.439 129.650,135.903 131.630,135.263 132.400 C 133.320 134.736,131.200 137.591,131.200 137.872 C 131.200 138.018,130.340 139.142,129.288 140.369 C 128.237 141.596,127.081 143.050,126.719 143.600 C 126.358 144.150,125.418 145.308,124.631 146.173 C 123.844 147.038,123.200 147.876,123.200 148.035 C 123.200 148.194,122.615 149.042,121.900 149.918 C 121.185 150.795,120.150 152.086,119.600 152.786 C 119.050 153.487,118.195 154.542,117.700 155.130 C 117.206 155.719,116.801 156.307,116.800 156.438 C 116.800 156.569,116.349 157.199,115.798 157.838 C 115.246 158.477,114.692 159.321,114.567 159.713 C 114.441 160.105,113.947 160.835,113.469 161.336 C 112.991 161.837,112.330 162.658,112.000 163.162 C 111.670 163.665,110.641 165.063,109.714 166.269 C 108.787 167.474,107.624 169.121,107.129 169.930 C 106.635 170.738,105.997 171.639,105.712 171.931 C 105.428 172.223,104.992 172.842,104.743 173.306 C 104.495 173.770,104.132 174.341,103.938 174.575 C 103.743 174.809,102.822 176.170,101.892 177.600 C 100.961 179.030,99.975 180.438,99.700 180.729 C 99.425 181.019,99.200 181.480,99.200 181.753 C 99.200 182.026,98.885 182.598,98.500 183.025 C 98.115 183.451,97.538 184.340,97.218 185.000 C 96.898 185.660,96.339 186.560,95.975 187.000 C 95.203 187.934,92.150 193.306,89.951 197.600 C 89.105 199.250,88.231 200.817,88.007 201.083 C 87.783 201.349,87.600 201.690,87.600 201.841 C 87.600 202.188,85.090 207.611,83.824 210.000 C 83.300 210.990,82.745 212.475,82.591 213.300 C 82.437 214.125,82.190 214.800,82.043 214.800 C 81.792 214.800,81.150 216.757,80.566 219.300 C 80.427 219.905,80.182 220.400,80.022 220.400 C 79.862 220.400,79.397 221.885,78.988 223.700 C 78.580 225.515,78.111 227.094,77.946 227.210 C 77.781 227.325,77.279 229.395,76.831 231.810 C 76.383 234.224,75.754 237.352,75.433 238.759 C 75.113 240.167,74.726 242.912,74.574 244.859 C 74.421 246.807,74.170 248.400,74.015 248.400 C 73.860 248.400,73.717 248.625,73.698 248.900 C 73.042 258.203,72.547 268.492,72.644 270.800 C 72.887 276.560,73.658 285.406,73.987 286.200 C 74.169 286.640,74.636 288.890,75.025 291.200 C 75.414 293.510,75.863 295.580,76.022 295.800 C 76.182 296.020,76.531 297.280,76.796 298.600 C 77.062 299.920,77.520 301.540,77.815 302.200 C 78.109 302.860,78.625 304.300,78.960 305.400 C 80.115 309.188,81.572 313.284,81.926 313.741 C 82.122 313.994,82.622 315.190,83.037 316.400 C 83.453 317.610,83.885 318.690,83.997 318.800 C 84.109 318.910,85.340 321.250,86.733 324.000 C 88.126 326.750,89.966 330.260,90.822 331.800 C 91.677 333.340,92.547 334.960,92.754 335.400 C 92.961 335.840,93.461 336.621,93.865 337.136 C 94.269 337.651,94.978 338.551,95.440 339.136 C 95.903 339.721,96.203 340.425,96.107 340.700 C 96.012 340.975,96.218 341.200,96.567 341.200 C 96.915 341.200,97.200 341.367,97.200 341.571 C 97.200 341.776,97.436 342.181,97.724 342.471 C 98.012 342.762,98.769 343.962,99.407 345.137 C 100.045 346.312,100.934 347.576,101.384 347.947 C 101.833 348.317,102.819 349.425,103.575 350.410 C 105.222 352.555,105.919 353.308,111.527 359.000 C 116.855 364.407,122.648 369.200,123.857 369.200 C 124.009 369.200,124.418 369.477,124.766 369.815 C 125.115 370.153,126.300 370.987,127.400 371.668 C 128.500 372.349,129.872 373.231,130.449 373.627 C 131.778 374.541,136.712 377.029,137.900 377.385 C 138.395 377.533,138.800 377.822,138.800 378.027 C 138.800 378.232,138.988 378.400,139.218 378.400 C 139.449 378.400,140.971 379.025,142.602 379.788 C 144.233 380.552,146.027 381.292,146.588 381.433 C 147.149 381.573,147.699 381.837,147.811 382.018 C 147.923 382.199,149.046 382.636,150.307 382.989 C 151.568 383.342,152.960 383.796,153.400 383.997 C 155.434 384.930,157.359 385.600,158.003 385.600 C 158.391 385.600,159.207 385.859,159.816 386.175 C 160.426 386.491,162.156 386.970,163.662 387.239 C 165.168 387.508,166.400 387.909,166.400 388.131 C 166.400 388.352,166.505 388.429,166.632 388.301 C 166.760 388.173,168.108 388.413,169.627 388.834 C 171.147 389.255,172.896 389.600,173.515 389.600 C 174.134 389.600,174.856 389.816,175.120 390.080 C 175.384 390.344,175.600 390.447,175.600 390.308 C 175.600 390.169,176.185 390.230,176.900 390.442 C 178.794 391.004,187.344 391.995,193.800 392.400 C 196.880 392.593,200.567 392.844,201.994 392.958 C 203.693 393.093,204.384 393.034,203.994 392.788 C 203.667 392.581,202.761 392.409,201.979 392.406 C 201.198 392.403,197.868 391.523,194.579 390.452 C 153.109 376.938,122.226 344.158,111.248 302.000 C 105.753 280.898,106.499 253.976,113.199 231.600 C 118.319 214.501,128.310 196.267,140.924 181.000 C 143.280 178.149,152.500 168.048,153.500 167.222 C 153.885 166.905,155.375 165.555,156.812 164.222 C 158.248 162.890,162.208 159.683,165.612 157.096 C 169.015 154.509,173.510 151.081,175.600 149.479 C 187.469 140.381,202.559 129.041,206.600 126.183 C 209.092 124.420,221.549 114.218,225.826 110.437 C 226.720 109.647,229.048 107.650,231.000 106.000 C 232.952 104.350,235.312 102.314,236.244 101.477 L 237.940 99.953 239.670 102.268 C 240.622 103.542,241.670 104.972,242.000 105.447 C 242.562 106.254,244.300 108.672,247.600 113.235 C 250.684 117.499,254.175 122.211,254.391 122.400 C 254.516 122.510,254.959 123.134,255.375 123.787 C 255.792 124.440,256.867 125.914,257.766 127.063 C 259.592 129.398,262.099 132.833,266.843 139.500 C 268.605 141.975,270.305 144.000,270.623 144.000 C 271.414 144.000,271.350 143.724,270.300 142.600 C 269.805 142.070,268.770 140.706,268.000 139.569 C 267.230 138.432,266.285 137.213,265.900 136.862 C 265.515 136.510,265.200 136.084,265.200 135.915 C 265.200 135.643,264.083 134.059,261.594 130.800 C 259.964 128.665,256.981 124.647,256.600 124.073 C 256.380 123.742,255.930 123.162,255.600 122.784 C 254.798 121.867,249.927 114.960,249.317 113.874 C 249.051 113.401,248.589 112.831,248.292 112.607 C 247.994 112.383,247.407 111.615,246.989 110.900 C 246.570 110.185,246.091 109.600,245.924 109.600 C 245.757 109.600,245.336 109.050,244.989 108.379 C 244.642 107.707,244.007 106.762,243.579 106.279 C 241.893 104.377,241.600 103.987,241.600 103.649 C 241.600 103.456,241.317 103.063,240.971 102.776 C 240.625 102.489,239.996 101.611,239.573 100.827 C 239.150 100.042,238.355 98.680,237.805 97.800 C 237.255 96.920,236.682 95.930,236.532 95.600 C 236.381 95.270,236.146 94.910,236.008 94.800 C 235.487 94.383,233.266 90.837,232.999 89.996 C 232.845 89.513,232.296 88.492,231.777 87.729 C 231.259 86.965,230.725 85.993,230.590 85.570 C 230.456 85.146,230.200 84.800,230.022 84.800 C 229.844 84.800,229.308 83.945,228.830 82.900 C 228.352 81.855,227.455 80.100,226.835 79.000 C 225.544 76.708,224.052 73.802,222.831 71.200 C 222.366 70.210,221.820 69.130,221.617 68.800 C 220.808 67.484,218.400 62.028,218.400 61.511 C 218.400 61.208,218.249 60.789,218.064 60.580 C 217.879 60.371,217.492 59.570,217.204 58.800 C 216.460 56.813,215.672 54.970,214.350 52.125 C 213.718 50.764,213.200 49.378,213.200 49.044 C 213.200 48.238,212.349 46.400,211.976 46.400 C 211.813 46.400,211.459 45.455,211.189 44.300 C 210.919 43.145,210.361 41.445,209.949 40.522 C 209.537 39.599,209.197 38.519,209.194 38.122 C 209.187 37.331,208.426 35.062,207.744 33.800 C 207.506 33.360,207.209 32.334,207.084 31.520 C 206.959 30.707,206.592 29.447,206.268 28.720 C 205.368 26.701,204.759 23.703,205.030 22.624 C 205.204 21.930,205.036 21.451,204.437 20.938 C 203.976 20.545,203.600 19.883,203.600 19.469 C 203.600 18.662,202.536 14.195,202.107 13.200 C 201.965 12.870,201.657 11.792,201.423 10.805 C 200.903 8.617,199.821 8.168,199.172 9.871 M274.255 147.700 C 274.921 148.415,276.056 149.630,276.778 150.400 L 278.089 151.800 277.145 150.444 C 275.701 148.371,273.899 146.400,273.448 146.400 C 273.225 146.400,273.588 146.985,274.255 147.700 M278.302 152.276 C 278.206 152.454,278.458 152.915,278.863 153.300 C 279.722 154.116,279.823 153.727,279.026 152.676 C 278.724 152.278,278.398 152.098,278.302 152.276 M280.993 155.835 C 281.612 157.108,283.212 158.806,283.185 158.162 C 283.177 157.963,282.545 157.080,281.781 156.200 C 280.495 154.719,280.436 154.692,280.993 155.835 M283.447 159.379 C 283.578 159.721,283.857 160.000,284.066 160.000 C 284.276 160.000,284.379 160.135,284.296 160.300 C 284.213 160.465,284.767 161.230,285.527 162.000 C 286.906 163.398,286.907 163.398,286.154 162.174 C 284.621 159.682,282.870 157.874,283.447 159.379 M287.481 165.000 C 287.848 165.770,288.299 166.400,288.484 166.400 C 288.669 166.400,288.987 166.839,289.191 167.376 C 289.395 167.912,289.971 168.570,290.471 168.838 C 291.371 169.320,291.373 169.315,290.691 168.362 C 290.311 167.833,289.419 166.545,288.707 165.500 C 287.189 163.271,286.527 163.001,287.481 165.000 M291.200 169.801 C 291.200 170.263,293.719 173.600,294.068 173.600 C 294.251 173.600,294.404 173.825,294.409 174.100 C 294.420 174.744,295.880 176.653,296.152 176.381 C 296.266 176.267,295.564 175.100,294.591 173.787 C 292.483 170.940,291.200 169.432,291.200 169.801 M296.400 177.062 C 296.400 177.698,297.629 179.201,298.123 179.168 C 298.468 179.146,298.462 179.081,298.100 178.935 C 297.825 178.824,297.600 178.500,297.600 178.216 C 297.600 177.931,297.330 177.474,297.000 177.200 C 296.670 176.926,296.400 176.864,296.400 177.062 M298.904 181.001 C 299.242 181.661,299.897 182.544,300.359 182.963 C 300.822 183.382,301.200 183.904,301.200 184.124 C 301.200 184.344,301.650 185.114,302.200 185.836 C 302.750 186.557,303.200 187.264,303.200 187.408 C 303.200 187.697,305.646 191.282,306.060 191.600 C 306.203 191.710,306.800 192.790,307.386 194.000 C 308.772 196.861,309.450 198.051,309.864 198.354 C 310.049 198.489,310.993 200.220,311.962 202.200 C 312.931 204.180,313.891 205.910,314.096 206.045 C 314.301 206.179,314.440 206.359,314.406 206.445 C 314.198 206.962,316.804 212.529,317.110 212.223 C 317.392 211.942,316.364 208.800,315.990 208.800 C 315.835 208.800,315.397 207.983,315.016 206.985 C 314.363 205.276,310.510 198.033,310.023 197.600 C 309.900 197.490,309.532 196.860,309.205 196.200 C 308.879 195.540,308.312 194.550,307.946 194.000 C 307.580 193.450,306.497 191.671,305.540 190.046 C 302.644 185.129,302.320 184.608,302.034 184.400 C 301.882 184.290,301.368 183.558,300.892 182.774 C 300.416 181.989,299.635 180.999,299.158 180.574 L 298.291 179.800 298.904 181.001 M317.213 213.088 C 317.206 213.357,317.638 214.533,318.173 215.703 C 318.708 216.873,319.369 218.718,319.643 219.804 C 319.916 220.890,320.377 222.233,320.667 222.789 C 320.958 223.345,321.210 224.250,321.229 224.800 C 321.248 225.350,321.359 225.559,321.477 225.264 C 321.708 224.685,320.474 219.129,320.041 218.800 C 319.897 218.690,319.471 217.603,319.096 216.385 C 318.425 214.209,317.238 212.130,317.213 213.088 M322.552 227.600 C 322.701 228.150,323.022 229.541,323.265 230.691 C 323.508 231.840,323.840 232.699,324.002 232.599 C 324.312 232.407,323.014 227.262,322.550 226.843 C 322.403 226.709,322.404 227.050,322.552 227.600 M325.280 239.000 C 325.264 239.660,325.431 241.730,325.652 243.600 C 325.872 245.470,326.201 248.710,326.382 250.800 C 326.688 254.336,326.700 254.225,326.551 249.200 C 326.368 242.972,326.237 241.236,325.889 240.400 C 325.752 240.070,325.565 239.350,325.474 238.800 C 325.330 237.929,325.305 237.955,325.280 239.000 M326.303 274.000 C 326.140 276.750,325.917 279.810,325.808 280.800 C 325.699 281.790,325.724 282.330,325.865 282.000 C 326.005 281.670,326.278 281.296,326.471 281.170 C 326.664 281.043,326.772 278.253,326.711 274.970 L 326.600 269.000 326.303 274.000 M325.800 284.800 C 325.936 285.020,325.857 285.200,325.624 285.200 C 325.374 285.200,325.217 286.063,325.241 287.300 C 325.281 289.373,325.287 289.382,325.668 288.000 C 326.417 285.289,326.504 284.400,326.022 284.400 C 325.764 284.400,325.664 284.580,325.800 284.800 M324.676 292.010 C 324.530 292.555,324.428 293.540,324.449 294.200 C 324.480 295.157,324.559 295.036,324.842 293.600 C 325.229 291.633,325.102 290.417,324.676 292.010 M323.335 297.800 C 322.908 300.156,323.215 300.698,323.957 298.900 C 324.416 297.786,324.431 295.600,323.980 295.600 C 323.844 295.600,323.554 296.590,323.335 297.800 M322.532 301.973 C 322.295 302.602,322.244 303.348,322.419 303.630 C 322.627 303.967,322.834 303.628,323.016 302.654 C 323.363 300.806,323.108 300.448,322.532 301.973 M321.473 305.353 C 321.323 305.745,321.211 306.366,321.225 306.733 C 321.242 307.175,321.381 307.074,321.637 306.434 C 321.849 305.903,321.961 305.282,321.885 305.054 C 321.809 304.827,321.624 304.961,321.473 305.353 M320.496 308.709 C 320.202 309.331,320.147 309.907,320.359 310.119 C 320.572 310.332,320.833 309.961,320.998 309.211 C 321.354 307.588,321.130 307.365,320.496 308.709 M318.947 313.000 C 318.566 314.210,318.121 315.200,317.959 315.200 C 317.797 315.200,317.365 316.100,317.000 317.200 C 316.635 318.300,316.190 319.200,316.011 319.200 C 315.644 319.200,314.276 322.409,314.533 322.667 C 314.625 322.758,314.977 322.141,315.316 321.294 C 315.654 320.447,316.217 319.518,316.566 319.228 C 316.915 318.939,317.200 318.406,317.200 318.044 C 317.200 317.682,317.650 316.723,318.200 315.914 C 318.750 315.105,319.201 314.118,319.202 313.721 C 319.204 313.325,319.463 312.505,319.779 311.900 C 320.094 311.295,320.192 310.800,319.997 310.800 C 319.801 310.800,319.329 311.790,318.947 313.000 M313.190 324.226 C 312.976 324.790,312.800 325.408,312.800 325.597 C 312.800 325.787,312.543 326.199,312.230 326.513 C 311.625 327.118,310.297 330.030,310.523 330.256 C 310.597 330.330,311.071 329.627,311.577 328.695 C 314.810 322.741,314.609 323.200,313.990 323.200 C 313.765 323.200,313.405 323.662,313.190 324.226 M309.091 331.895 C 308.821 332.496,308.285 333.306,307.900 333.695 C 307.088 334.512,306.972 335.264,307.700 334.980 C 308.328 334.736,310.444 330.800,309.948 330.800 C 309.747 330.800,309.362 331.293,309.091 331.895 M305.706 337.300 C 305.098 338.235,304.464 339.060,304.298 339.134 C 304.131 339.208,304.101 339.440,304.230 339.649 C 304.468 340.034,306.425 337.589,306.911 336.300 C 307.360 335.109,306.862 335.523,305.706 337.300 M301.913 342.700 C 301.578 343.085,301.081 343.850,300.810 344.400 L 300.317 345.400 301.258 344.395 C 302.809 342.741,303.320 342.000,302.911 342.000 C 302.698 342.000,302.249 342.315,301.913 342.700 M299.032 346.713 L 298.264 347.800 299.332 346.830 C 300.454 345.811,300.593 345.592,300.100 345.613 C 299.935 345.619,299.454 346.114,299.032 346.713 M294.169 352.524 C 293.492 353.226,292.785 354.070,292.598 354.400 C 292.411 354.730,293.010 354.235,293.929 353.300 C 294.848 352.364,295.600 351.509,295.600 351.400 C 295.600 351.076,295.462 351.184,294.169 352.524 M291.600 355.168 C 291.600 355.397,290.577 356.574,289.327 357.785 C 288.077 358.996,287.132 360.063,287.227 360.157 C 287.322 360.250,288.532 359.188,289.915 357.796 C 291.335 356.368,292.249 355.154,292.015 355.009 C 291.787 354.868,291.600 354.940,291.600 355.168 M283.639 363.200 C 282.468 364.300,281.669 365.200,281.865 365.200 C 282.061 365.200,282.685 364.705,283.252 364.100 C 283.818 363.495,284.774 362.595,285.375 362.100 C 285.976 361.605,286.311 361.200,286.119 361.200 C 285.927 361.200,284.811 362.100,283.639 363.200 M276.475 369.216 C 275.994 369.664,275.600 370.146,275.600 370.285 C 275.600 370.425,276.050 370.117,276.600 369.600 C 277.538 368.719,277.771 368.400,277.475 368.400 C 277.407 368.400,276.957 368.767,276.475 369.216 M274.200 370.871 C 273.234 371.411,271.842 372.804,272.284 372.789 C 272.626 372.778,275.530 370.421,275.200 370.423 C 275.090 370.424,274.640 370.625,274.200 370.871 M263.200 378.000 C 262.693 378.440,262.095 378.800,261.872 378.800 C 261.649 378.800,261.570 378.903,261.696 379.029 C 261.968 379.301,264.239 378.184,264.598 377.603 C 265.022 376.917,264.170 377.159,263.200 378.000 M251.700 383.465 C 251.425 383.576,251.200 383.832,251.200 384.033 C 251.200 384.613,252.252 384.460,252.800 383.800 C 253.325 383.168,252.819 383.013,251.700 383.465 M246.700 385.476 C 245.845 385.699,245.769 386.400,246.600 386.400 C 246.930 386.400,247.200 386.233,247.200 386.029 C 247.200 385.825,247.515 385.576,247.900 385.476 C 248.352 385.358,248.388 385.293,248.000 385.293 C 247.670 385.293,247.085 385.375,246.700 385.476 M237.000 388.797 C 236.340 388.975,235.125 389.237,234.300 389.379 C 233.475 389.520,232.800 389.829,232.800 390.065 C 232.800 390.308,233.188 390.397,233.700 390.271 C 234.195 390.148,235.500 389.838,236.600 389.582 C 237.700 389.325,238.771 388.955,238.980 388.758 C 239.438 388.326,238.684 388.341,237.000 388.797 M229.000 390.800 L 228.200 391.144 229.000 391.132 C 229.440 391.126,230.250 390.976,230.800 390.800 L 231.800 390.480 230.800 390.468 C 230.250 390.462,229.440 390.611,229.000 390.800 M223.300 391.313 C 220.049 391.759,219.545 392.176,222.100 392.304 C 224.014 392.400,227.253 391.610,226.951 391.120 C 226.842 390.944,226.628 390.826,226.476 390.858 C 226.324 390.890,224.895 391.095,223.300 391.313 M205.200 392.800 C 205.200 393.020,205.965 393.182,206.900 393.160 C 208.344 393.126,208.450 393.072,207.600 392.800 C 206.161 392.339,205.200 392.339,205.200 392.800 M213.513 392.695 C 214.676 392.776,216.476 392.776,217.513 392.693 C 218.551 392.611,217.600 392.545,215.400 392.546 C 213.200 392.547,212.351 392.614,213.513 392.695 " stroke="none" fill="#badcf4" fill-rule="evenodd"></path><path id="path1" d="M321.200 274.268 C 278.483 278.550,249.680 292.579,227.716 319.800 C 219.386 330.124,210.248 346.536,207.225 356.600 C 206.961 357.480,206.578 358.560,206.374 359.000 C 205.389 361.130,202.754 371.587,201.838 377.000 C 200.830 382.956,199.913 390.796,200.151 391.417 C 200.466 392.238,214.943 392.219,220.800 391.390 C 228.847 390.251,241.886 387.483,242.400 386.805 C 242.510 386.660,243.500 386.303,244.600 386.011 C 246.509 385.506,247.696 385.038,252.200 383.010 C 253.300 382.515,254.650 381.973,255.200 381.806 C 255.750 381.639,256.380 381.364,256.600 381.195 C 256.820 381.026,258.613 380.034,260.585 378.989 C 264.378 376.980,268.816 374.229,272.314 371.717 C 274.395 370.223,275.313 369.523,279.750 366.045 C 287.290 360.133,301.018 344.495,306.196 335.918 C 306.633 335.193,307.389 333.970,307.875 333.200 C 309.377 330.822,313.364 323.486,314.071 321.800 C 314.441 320.920,315.566 318.618,316.571 316.684 C 317.577 314.750,318.400 313.006,318.400 312.810 C 318.400 312.613,318.609 311.945,318.865 311.326 C 319.120 310.707,319.294 310.046,319.251 309.858 C 319.207 309.670,319.346 309.306,319.559 309.049 C 320.419 308.013,323.386 295.903,324.031 290.800 C 324.239 289.150,324.666 285.100,324.979 281.800 C 325.292 278.500,325.670 275.395,325.820 274.900 C 326.111 273.942,325.411 273.846,321.200 274.268 " stroke="none" fill="#045d95" fill-rule="evenodd"></path><path id="path2" d="M237.400 100.400 C 237.112 100.866,233.949 103.569,217.931 117.037 C 213.459 120.797,208.090 125.104,206.000 126.609 C 200.926 130.261,187.185 140.599,175.600 149.479 C 173.510 151.081,169.015 154.509,165.612 157.096 C 162.208 159.683,158.248 162.890,156.812 164.222 C 155.375 165.555,153.885 166.905,153.500 167.222 C 152.500 168.048,143.280 178.149,140.924 181.000 C 129.748 194.527,120.806 210.069,114.921 226.200 C 106.803 248.449,105.313 279.207,111.248 302.000 C 122.154 343.880,153.096 376.897,193.952 390.251 C 196.896 391.213,199.399 392.000,199.515 392.000 C 199.630 392.000,198.502 391.055,197.006 389.900 C 161.702 362.636,146.584 338.062,141.945 300.400 C 139.691 282.096,143.811 256.691,152.583 234.800 C 160.972 213.867,168.584 203.268,187.200 186.595 C 208.607 167.423,236.390 152.568,263.800 145.640 C 265.560 145.195,267.656 144.599,268.458 144.315 L 269.916 143.800 266.778 139.400 C 261.941 132.618,259.548 129.343,257.766 127.063 C 256.867 125.914,255.792 124.440,255.375 123.787 C 254.959 123.134,254.516 122.510,254.391 122.400 C 254.175 122.211,250.684 117.499,247.600 113.235 C 244.300 108.672,242.562 106.254,242.000 105.447 C 238.802 100.847,237.802 99.750,237.400 100.400 M272.645 146.500 C 273.950 147.875,275.677 149.807,276.482 150.793 C 277.288 151.780,278.060 152.474,278.197 152.336 C 278.335 152.198,277.845 151.481,277.109 150.743 C 274.581 148.209,272.413 145.502,272.630 145.151 C 272.750 144.958,272.477 144.800,272.024 144.800 C 271.571 144.800,271.200 144.620,271.200 144.400 C 271.200 144.180,270.991 144.000,270.737 144.000 C 270.482 144.000,271.341 145.125,272.645 146.500 M278.655 153.700 C 279.091 154.195,279.708 154.977,280.024 155.439 C 281.824 158.060,283.724 160.400,284.053 160.400 C 284.453 160.400,284.412 160.338,282.414 157.947 C 281.746 157.148,281.200 156.338,281.200 156.147 C 281.199 155.678,278.615 152.800,278.195 152.800 C 278.011 152.800,278.218 153.205,278.655 153.700 M284.451 161.495 C 284.753 161.877,285.131 162.372,285.290 162.595 C 286.337 164.057,287.609 165.319,287.210 164.500 C 286.969 164.005,286.844 163.600,286.933 163.600 C 287.022 163.600,286.500 162.970,285.774 162.200 C 284.416 160.759,283.473 160.257,284.451 161.495 M289.854 168.887 C 290.016 169.150,290.380 169.643,290.661 169.983 C 291.321 170.778,292.332 172.211,295.958 177.492 C 299.019 181.948,301.200 184.688,301.200 184.076 C 301.200 183.882,300.822 183.382,300.359 182.963 C 299.464 182.153,298.209 180.000,298.632 180.000 C 298.771 180.000,298.326 179.478,297.642 178.840 C 296.959 178.201,296.400 177.491,296.400 177.260 C 296.400 177.030,295.950 176.356,295.400 175.762 C 294.850 175.169,294.400 174.541,294.400 174.366 C 294.400 174.192,293.857 173.455,293.194 172.729 C 292.531 172.003,292.079 171.172,292.189 170.883 C 292.300 170.595,292.213 170.469,291.995 170.603 C 291.777 170.738,291.433 170.412,291.230 169.879 C 291.027 169.345,290.568 168.797,290.210 168.659 C 289.768 168.490,289.654 168.563,289.854 168.887 M304.362 189.929 C 304.605 190.384,305.001 190.877,305.242 191.026 C 305.556 191.220,305.554 191.062,305.238 190.471 C 304.995 190.016,304.599 189.523,304.358 189.374 C 304.044 189.180,304.046 189.338,304.362 189.929 M305.988 192.378 C 306.633 193.582,307.271 193.792,306.739 192.625 C 306.482 192.061,306.114 191.600,305.922 191.600 C 305.729 191.600,305.759 191.950,305.988 192.378 M309.859 199.100 C 309.960 199.485,310.392 200.250,310.819 200.800 C 311.595 201.800,311.595 201.799,310.898 200.104 C 310.208 198.427,309.503 197.746,309.859 199.100 M312.000 203.100 C 312.000 203.291,312.261 203.796,312.580 204.224 C 313.140 204.973,313.152 204.968,312.932 204.094 C 312.704 203.191,312.000 202.440,312.000 203.100 M314.000 207.100 C 314.000 207.291,314.261 207.796,314.580 208.224 C 315.140 208.973,315.152 208.968,314.932 208.094 C 314.704 207.191,314.000 206.440,314.000 207.100 M316.013 211.430 C 316.034 212.037,317.108 213.274,317.310 212.924 C 317.413 212.746,317.161 212.254,316.749 211.830 C 316.337 211.407,316.006 211.227,316.013 211.430 M318.000 216.300 C 318.000 216.491,318.261 216.996,318.580 217.424 C 319.140 218.173,319.152 218.168,318.932 217.294 C 318.704 216.391,318.000 215.640,318.000 216.300 M320.013 222.420 C 320.020 222.739,320.308 223.360,320.654 223.800 C 321.265 224.577,321.275 224.571,320.996 223.600 C 320.647 222.379,319.995 221.597,320.013 222.420 M322.028 227.476 C 322.013 227.958,322.180 228.464,322.400 228.600 C 322.873 228.892,322.873 228.501,322.400 227.400 C 322.069 226.629,322.055 226.631,322.028 227.476 M323.930 232.603 C 323.788 232.825,323.849 233.815,324.065 234.803 C 324.282 235.792,324.616 237.410,324.809 238.400 C 325.154 240.173,325.156 240.167,324.969 238.000 C 324.672 234.547,324.213 232.163,323.930 232.603 M326.166 262.600 C 326.167 270.960,326.228 275.912,326.299 273.605 C 326.371 271.298,326.603 269.237,326.815 269.025 C 327.319 268.521,327.321 255.081,326.818 254.578 C 326.608 254.368,326.374 252.667,326.299 250.798 C 326.224 248.929,326.164 254.240,326.166 262.600 M326.020 281.800 C 325.957 282.240,325.927 282.735,325.953 282.900 C 325.979 283.065,325.820 283.200,325.600 283.200 C 325.380 283.200,325.200 283.650,325.200 284.200 C 325.200 284.750,325.391 285.200,325.624 285.200 C 325.857 285.200,325.945 285.035,325.821 284.834 C 325.697 284.633,325.789 284.404,326.027 284.324 C 326.278 284.241,326.391 283.514,326.297 282.590 C 326.208 281.716,326.083 281.360,326.020 281.800 M324.904 288.857 C 324.901 289.879,324.749 290.958,324.566 291.256 C 324.086 292.031,323.681 295.600,324.072 295.600 C 324.252 295.600,324.402 295.015,324.404 294.300 C 324.407 293.585,324.644 292.190,324.931 291.200 C 325.223 290.195,325.333 288.870,325.180 288.200 C 324.949 287.184,324.907 287.285,324.904 288.857 M321.734 303.827 C 321.602 304.172,321.698 304.658,321.947 304.907 C 322.284 305.244,322.400 305.084,322.400 304.280 C 322.400 303.077,322.101 302.873,321.734 303.827 M313.884 322.400 C 313.769 322.840,313.817 323.200,313.991 323.200 C 314.165 323.200,314.401 322.840,314.516 322.400 C 314.631 321.960,314.583 321.600,314.409 321.600 C 314.235 321.600,313.999 321.960,313.884 322.400 M310.246 329.386 C 309.526 330.485,309.452 330.800,309.912 330.800 C 310.084 330.800,310.428 330.260,310.678 329.600 C 311.228 328.142,311.102 328.080,310.246 329.386 M302.229 341.829 C 301.364 342.693,301.441 342.906,302.400 342.307 C 302.840 342.032,303.200 341.671,303.200 341.504 C 303.200 341.043,302.921 341.136,302.229 341.829 M298.204 347.196 C 297.574 347.854,297.180 348.514,297.329 348.662 C 297.478 348.811,297.600 348.713,297.600 348.443 C 297.600 348.173,297.780 348.064,298.000 348.200 C 298.220 348.336,298.400 348.226,298.400 347.955 C 298.400 347.684,298.698 347.134,299.062 346.731 C 300.160 345.518,299.436 345.910,298.204 347.196 M295.606 350.389 C 295.112 351.311,295.662 351.489,296.370 350.636 C 296.673 350.272,296.697 349.984,296.439 349.824 C 296.220 349.689,295.845 349.943,295.606 350.389 M288.800 357.753 C 287.370 359.152,285.660 360.904,285.000 361.647 L 283.800 362.997 284.950 361.999 C 286.469 360.679,290.455 356.747,291.149 355.883 C 292.200 354.575,291.384 355.225,288.800 357.753 M280.300 365.757 C 279.569 366.312,279.384 366.800,279.904 366.800 C 280.071 366.800,280.432 366.440,280.707 366.000 C 281.289 365.068,281.244 365.040,280.300 365.757 M250.300 383.876 C 249.915 383.976,249.600 384.209,249.600 384.392 C 249.600 384.575,249.960 384.631,250.400 384.516 C 250.840 384.401,251.200 384.148,251.200 383.953 C 251.200 383.759,251.155 383.621,251.100 383.646 C 251.045 383.672,250.685 383.775,250.300 383.876 M244.900 386.012 C 244.405 386.211,244.014 386.605,244.032 386.887 C 244.056 387.289,244.107 387.291,244.265 386.900 C 244.376 386.625,244.812 386.400,245.233 386.400 C 245.655 386.400,246.000 386.220,246.000 386.000 C 246.000 385.780,245.955 385.611,245.900 385.625 C 245.845 385.639,245.395 385.813,244.900 386.012 M239.000 387.885 C 237.657 388.208,237.495 388.677,238.792 388.486 C 239.462 388.388,240.108 388.149,240.229 387.954 C 240.459 387.582,240.299 387.573,239.000 387.885 M229.004 390.394 C 228.852 390.640,229.255 390.694,230.080 390.537 C 231.849 390.200,232.001 390.000,230.490 390.000 C 229.807 390.000,229.138 390.177,229.004 390.394 M217.800 392.000 C 217.180 392.266,217.383 392.350,218.700 392.372 C 219.635 392.387,220.400 392.220,220.400 392.000 C 220.400 391.521,218.916 391.521,217.800 392.000 M201.710 392.294 C 202.760 392.377,203.542 392.570,203.448 392.722 C 203.354 392.875,203.709 393.026,204.238 393.058 C 204.767 393.089,205.200 392.934,205.200 392.713 C 205.200 392.463,205.767 392.422,206.700 392.604 C 208.879 393.031,211.600 393.112,211.600 392.751 C 211.600 392.580,212.635 392.375,213.900 392.296 C 215.165 392.216,212.510 392.150,208.000 392.148 C 203.490 392.146,200.659 392.212,201.710 392.294 " stroke="none" fill="#73cbf3" fill-rule="evenodd"></path><path id="path3" d="M310.200 223.837 C 281.068 226.678,246.652 244.432,223.103 268.766 C 201.206 291.392,191.499 320.275,193.835 355.848 C 194.680 368.716,198.662 392.000,200.018 392.000 C 200.215 392.000,200.274 391.738,200.151 391.417 C 199.913 390.796,200.830 382.956,201.838 377.000 C 202.754 371.587,205.389 361.130,206.374 359.000 C 206.578 358.560,206.961 357.480,207.225 356.600 C 216.487 325.764,245.331 295.885,277.600 283.701 C 291.696 278.378,304.739 275.620,322.700 274.164 L 326.000 273.897 325.979 261.248 C 325.968 254.292,325.816 247.430,325.642 246.000 C 324.948 240.308,323.872 234.439,322.960 231.377 C 322.432 229.605,322.000 227.957,322.000 227.714 C 322.000 227.472,321.524 226.357,320.943 225.237 L 319.886 223.200 317.843 223.246 C 316.719 223.271,313.280 223.537,310.200 223.837 M325.578 275.233 C 325.565 275.325,325.310 278.100,325.009 281.400 C 324.709 284.700,324.348 288.390,324.208 289.600 C 324.044 291.006,324.085 291.584,324.321 291.200 C 324.779 290.455,326.208 275.675,325.856 275.323 C 325.715 275.182,325.590 275.142,325.578 275.233 M322.848 297.248 C 322.372 299.485,322.072 301.405,322.182 301.515 C 322.452 301.786,322.617 301.181,323.391 297.061 C 324.315 292.149,323.904 292.290,322.848 297.248 M321.276 303.673 C 321.054 304.403,320.766 305.478,320.638 306.063 C 320.509 306.647,320.286 307.457,320.143 307.863 C 319.961 308.376,320.012 308.479,320.310 308.200 C 320.793 307.749,322.144 302.811,321.862 302.529 C 321.762 302.429,321.498 302.943,321.276 303.673 M318.811 311.371 C 318.585 311.965,318.413 312.755,318.428 313.126 C 318.444 313.497,318.714 313.096,319.030 312.235 C 319.345 311.374,319.518 310.584,319.413 310.479 C 319.308 310.375,319.037 310.776,318.811 311.371 M317.052 315.516 C 316.639 316.184,316.016 318.000,316.200 318.000 C 316.500 318.000,317.673 315.539,317.470 315.336 C 317.365 315.232,317.177 315.313,317.052 315.516 M315.079 319.574 C 314.706 320.206,314.400 320.959,314.400 321.246 C 314.400 321.534,314.757 321.068,315.194 320.212 C 316.133 318.371,316.053 317.926,315.079 319.574 M290.386 355.900 L 288.200 358.200 290.500 356.014 C 292.637 353.982,292.983 353.600,292.686 353.600 C 292.624 353.600,291.589 354.635,290.386 355.900 M284.575 361.700 L 283.400 363.000 284.700 361.825 C 285.415 361.179,286.000 360.594,286.000 360.525 C 286.000 360.216,285.670 360.488,284.575 361.700 M258.089 380.265 C 257.368 380.620,256.876 381.009,256.995 381.129 C 257.115 381.249,257.426 381.134,257.687 380.873 C 257.947 380.613,258.484 380.400,258.880 380.400 C 259.276 380.400,259.600 380.220,259.600 380.000 C 259.600 379.501,259.659 379.491,258.089 380.265 M252.900 382.634 C 251.187 383.383,251.241 383.635,253.000 383.095 C 253.770 382.859,254.400 382.516,254.400 382.333 C 254.400 382.150,254.355 382.015,254.300 382.033 C 254.245 382.051,253.615 382.321,252.900 382.634 M243.300 386.282 C 242.805 386.378,242.400 386.606,242.400 386.790 C 242.400 387.203,243.930 386.836,244.230 386.352 C 244.349 386.158,244.392 386.025,244.324 386.054 C 244.256 386.084,243.795 386.187,243.300 386.282 M236.480 388.395 C 235.754 388.567,235.047 388.820,234.909 388.958 C 234.524 389.343,237.348 388.742,237.780 388.347 C 237.989 388.156,238.079 388.018,237.980 388.041 C 237.881 388.063,237.206 388.223,236.480 388.395 M231.000 390.000 C 232.101 390.473,232.492 390.473,232.200 390.000 C 232.064 389.780,231.558 389.613,231.076 389.628 C 230.231 389.655,230.229 389.669,231.000 390.000 M226.800 390.400 L 225.400 390.695 227.076 390.747 C 227.998 390.776,228.864 390.620,229.000 390.400 C 229.272 389.960,228.891 389.960,226.800 390.400 " stroke="none" fill="#047bbd" fill-rule="evenodd"></path><path id="path4" d="M265.600 145.074 C 252.517 148.824,245.102 151.371,236.647 155.018 C 210.462 166.314,186.096 184.506,168.361 206.000 C 161.637 214.150,154.392 228.445,149.407 243.400 C 142.836 263.111,140.011 284.694,141.945 300.400 C 146.290 335.676,161.404 361.785,191.050 385.230 C 199.108 391.602,200.079 392.298,199.416 391.226 C 198.185 389.234,194.490 365.823,193.837 355.875 C 191.499 320.273,201.200 291.399,223.103 268.766 C 246.908 244.167,281.104 226.637,310.775 223.824 C 320.015 222.947,319.883 222.938,320.566 224.500 C 320.879 225.215,321.149 225.525,321.167 225.189 C 321.185 224.853,320.962 224.223,320.670 223.789 C 320.379 223.355,319.909 221.920,319.626 220.600 C 319.343 219.280,318.950 218.000,318.753 217.756 C 318.557 217.513,318.056 216.327,317.642 215.121 C 317.227 213.916,316.702 212.585,316.475 212.165 C 316.248 211.744,314.964 209.150,313.623 206.400 C 312.281 203.650,310.555 200.320,309.787 199.000 C 309.020 197.680,308.123 196.020,307.795 195.312 C 307.468 194.604,306.508 192.984,305.663 191.712 C 304.818 190.440,303.345 188.140,302.390 186.600 C 301.435 185.060,300.258 183.350,299.775 182.800 C 299.291 182.250,297.569 179.861,295.948 177.492 C 292.571 172.557,291.444 170.957,290.483 169.728 C 290.107 169.248,289.530 168.458,289.200 167.972 C 288.249 166.572,285.473 162.781,282.400 158.685 C 281.410 157.365,280.334 155.906,280.009 155.443 C 276.545 150.499,270.604 143.974,269.637 144.050 C 269.286 144.077,267.470 144.538,265.600 145.074 M322.358 229.409 C 323.042 231.555,323.211 231.821,322.996 230.413 C 322.880 229.649,322.603 228.843,322.382 228.622 C 322.110 228.350,322.103 228.609,322.358 229.409 M324.282 237.621 C 324.408 238.599,324.575 239.475,324.655 239.567 C 324.981 239.942,324.760 236.955,324.421 236.421 C 324.184 236.046,324.135 236.470,324.282 237.621 " stroke="none" fill="#0ca9e4" fill-rule="evenodd"></path></g></svg>